# xmcd
#
# Track frame offsets:
#	150
#	16162
#	28392
#	39495
#	52783
#	64689
#	78148
#	95770
#	110800
#	121033
#	136572
#	150525
#	167891
#	185054
#	202746
#	217118
#
# Disc length: 3132 seconds
#
# Revision: 0
# Processed by: cddbd v1.5.1PL0 Copyright (c) Steve Scherf et al.
# Submitted via: dBpowerAMP V4.0
#
DISCID=d00c3a10
DTITLE=聖經-舊約 - Disc 63
DYEAR=1900
DGENRE=
TTITLE0=彌迦書第1章
TTITLE1=彌迦書第2章
TTITLE2=彌迦書第3章
TTITLE3=彌迦書第4章
TTITLE4=彌迦書第5章
TTITLE5=彌迦書第6章
TTITLE6=彌迦書第7章
TTITLE7=那鴻書第1章
TTITLE8=那鴻書第2章
TTITLE9=那鴻書第3章
TTITLE10=哈巴谷書第1章
TTITLE11=哈巴谷書第2章
TTITLE12=哈巴谷書第3章
TTITLE13=西番雅書第1章
TTITLE14=西番雅書第2章
TTITLE15=西番雅書第3章
EXTD=
EXTT0=
EXTT1=
EXTT2=
EXTT3=
EXTT4=
EXTT5=
EXTT6=
EXTT7=
EXTT8=
EXTT9=
EXTT10=
EXTT11=
EXTT12=
EXTT13=
EXTT14=
EXTT15=
PLAYORDER=
